<?xml version="1.0" ?><svg enable-background="new 0 0 24 24" height="24px" id="Layer_1" version="1.1" viewBox="0 0 24 24" width="24px" xml:space="preserve" xmlns="http://www.w3.org/2000/svg" xmlns:xlink="http://www.w3.org/1999/xlink"><rect fill="none" height="24" width="24"/><g><line fill="none" stroke="#000000" stroke-linecap="round" stroke-linejoin="round" x1="10" x2="10" y1="2.67" y2="0.5947"/><line fill="none" stroke="#000000" stroke-linecap="round" stroke-linejoin="round" x1="4.5948" x2="6.819" y1="5.464" y2="5.464"/><line fill="none" stroke="#000000" stroke-linecap="round" stroke-linejoin="round" x1="13.181" x2="15.4053" y1="5.464" y2="5.464"/><line fill="none" stroke="#000000" stroke-linecap="round" stroke-linejoin="round" x1="12.3038" x2="14.115" y1="3.4405" y2="1.728"/><line fill="none" stroke="#000000" stroke-linecap="round" stroke-linejoin="round" x1="7.6963" x2="5.8851" y1="3.4405" y2="1.728"/><path d="M11.5,13.4999v-1.5   c0-0.8284,0.6716-1.5,1.5-1.5l0,0c0.8284,0,1.5,0.6716,1.5,1.5v2.5" fill="none" stroke="#000000" stroke-linecap="round" stroke-linejoin="round"/><path d="M17.5,14.9999v-2   c0-0.8284-0.6716-1.5-1.5-1.5s-1.5,0.6716-1.5,1.5v1.5" fill="none" stroke="#000000" stroke-linecap="round" stroke-linejoin="round"/><path d="M8.5,17.4999v-11.5   c0-0.8284,0.6716-1.5,1.5-1.5s1.5,0.6716,1.5,1.5v7.5" fill="none" stroke="#000000" stroke-linecap="round" stroke-linejoin="round"/><path d="M9.0536,23.4667   C8.617,22.4073,7.8084,21.693,7.8084,21.693c-2.2758-2.6511-4.1385-7.8779-4.1385-7.8779   c-0.5818-1.5194,1.3361-2.1632,1.947-1.2011l0.8321,1.3859l2.051,3.5" fill="none" stroke="#000000" stroke-linecap="round" stroke-linejoin="round"/><path d="M17.6212,23.4667   c0.1479-0.8532,0.4797-2.1846,1.2274-3.6532c1.0508-2.0638,1.3415-4.766,1.3415-4.766c0-0.8284-0.3617-1.5476-1.1901-1.5476   s-1.5,0.6716-1.5,1.5" fill="none" stroke="#000000" stroke-linecap="round" stroke-linejoin="round"/><line fill="none" stroke="#000000" stroke-linecap="round" stroke-linejoin="round" x1="17.5" x2="17.5" y1="14.9999" y2="15.4999"/></g></svg>